<?xml version="1.0" encoding="UTF-8"?>
<svg width="311px" height="185px" viewBox="0 0 311 185" version="1.1" xmlns="http://www.w3.org/2000/svg" xmlns:xlink="http://www.w3.org/1999/xlink">
    <!-- Generator: Sketch 52.4 (67378) - http://www.bohemiancoding.com/sketch -->
    <title>Group</title>
    <desc>Created with Sketch.</desc>
    <g id="Page-1" stroke="none" stroke-width="1" fill="none" fill-rule="evenodd">
        <g id="Desktop-HD-Copy-2" transform="translate(-461.000000, -518.000000)" fill="#f3a683">
            <g id="Group" transform="translate(461.000000, 518.000000)">
                <path d="M27.84,0.04 C41.92,0.04 48.24,7.4 51.12,14.44 C51.36,15 51.44,15.56 51.44,16.04 C51.44,17.72 50.16,18.84 48.96,19.24 C48.32,19.48 47.68,19.56 47.04,19.56 C45.68,19.56 44.4,19 43.68,17.48 C41.28,11.72 37.28,7 28.16,7 C16.16,7 8.24,16.68 8.24,32.44 C8.24,47.88 16.16,57.8 28.16,57.8 C37.76,57.8 42.32,52.04 44.4,45.64 C45.04,43.88 46.48,43.16 48,43.16 C48.48,43.16 49.04,43.24 49.6,43.4 C50.96,43.72 52.4,44.92 52.4,46.6 C52.4,47.08 52.32,47.48 52.16,47.96 C49.36,55.88 42.64,64.84 28.4,64.84 C11.2,64.84 0.24,52.28 0.24,32.36 C0.24,12.92 11.2,0.04 27.84,0.04 Z M114.24,0.04 C131.36,0.04 142.08,12.68 142.08,32.44 C142.08,52.12 131.36,64.84 114.24,64.84 C97.12,64.84 86.24,52.2 86.24,32.36 C86.24,12.76 97.04,0.04 114.24,0.04 Z M114.24,6.92 C101.84,6.92 94.16,17 94.16,32.44 C94.16,47.88 102,57.88 114.24,57.88 C126.72,57.88 134.16,48.04 134.16,31.96 C134.16,16.84 126.4,6.92 114.24,6.92 Z M180.16,55 L180.16,4.2 C180.16,1.8 181.84,0.76 184,0.76 C186.24,0.76 187.84,1.8 187.84,4.12 L187.84,53.56 C187.84,55.4 188.88,56.36 190.72,56.36 L219.04,56.36 C221.12,56.36 222.32,57.88 222.32,59.88 C222.32,61.8 221.12,63.56 219.04,63.56 L188.32,63.56 C182.64,63.56 180.16,61.08 180.16,55 Z M282.32,0.04 C299.44,0.04 310.16,12.68 310.16,32.44 C310.16,52.12 299.44,64.84 282.32,64.84 C265.2,64.84 254.32,52.2 254.32,32.36 C254.32,12.76 265.12,0.04 282.32,0.04 Z M282.32,6.92 C269.92,6.92 262.24,17 262.24,32.44 C262.24,47.88 270.08,57.88 282.32,57.88 C294.8,57.88 302.24,48.04 302.24,31.96 C302.24,16.84 294.48,6.92 282.32,6.92 Z" id="C-O-L-O"></path>
                <path d="M208.8,128.2 L181.12,128.2 C179.12,128.2 178,126.68 178,124.76 C178,122.84 179.12,121.24 181.12,121.24 L217.92,121.24 C220.64,121.24 222.08,123 222.08,125.56 C222.08,128.12 221.12,129.48 219.36,131.72 L187.12,173.4 C186.24,174.52 185.04,175.48 183.6,176.92 C185.28,176.76 187.36,176.6 188.72,176.6 L220.24,176.6 C222.24,176.6 223.28,178.04 223.28,179.96 C223.28,181.8 222.16,183.56 220.08,183.56 L179.44,183.56 C176.88,183.56 175.2,181.72 175.2,179.16 C175.2,176.6 176.24,175.16 177.84,173.16 L210.32,131.4 C211.2,130.28 212.4,129.24 213.84,127.8 C212.08,128.04 210,128.2 208.8,128.2 Z" id="Z"></path>
                <path d="M270.4,155.36 L270.4,175.04 C270.4,176.88 271.6,177.6 273.36,177.6 L302,177.6 C304.08,177.6 305.2,179.04 305.2,181.04 C305.2,182.96 304.08,184.56 302,184.56 L271.04,184.56 C265.36,184.56 262.88,182.08 262.88,176 L262.88,130.88 C262.88,124.72 265.36,122.24 271.04,122.24 L301.28,122.24 C303.36,122.24 304.48,123.68 304.48,125.68 C304.48,127.68 303.36,129.2 301.28,129.2 L273.12,129.2 C271.2,129.2 270.4,130.08 270.4,132 L270.4,148.56 L297.68,148.56 C299.68,148.56 300.8,150 300.8,152 C300.8,153.84 299.6,155.36 297.68,155.36 L270.4,155.36 Z" id="E"></path>
                <path d="M109.88,180.76 L109.88,124.04 C109.88,121.8 111.48,120.76 113.64,120.76 C115.88,120.76 117.56,121.8 117.56,124.04 L117.56,180.76 C117.56,182.92 115.88,184.04 113.64,184.04 C111.48,184.04 109.88,182.92 109.88,180.76 Z" id="I"></path>
                <path d="M51.4,174.6 L53.4,179.32 C53.56,179.8 53.64,180.2 53.64,180.68 C53.64,182.2 52.6,183.4 51,183.8 C50.44,183.96 49.8,184.04 49.24,184.04 C47.88,184.04 46.68,183.4 46.12,181.96 L44.12,176.84 C38.36,161.24 36.12,155.56 28.12,155.56 L13.4,155.56 L13.4,180.68 C13.4,182.92 11.88,184.04 9.72,184.04 C7.48,184.04 5.88,182.92 5.88,180.6 L5.88,129.88 C5.88,123.72 8.36,121.24 14.04,121.24 L32.76,121.24 C44.36,121.24 50.76,127.4 50.76,137.24 C50.76,146.44 45.56,151.24 38.12,152.84 C42.92,154.28 45.48,159.64 51.4,174.6 Z M13.4,149 L31.8,149 C38.6,149 43.08,144.76 43.08,138.36 C43.08,131.56 39.4,127.88 32.28,127.88 L16.04,127.88 C14.36,127.88 13.4,128.76 13.4,130.68 L13.4,149 Z" id="R"></path>
            </g>
        </g>
    </g>
</svg>
