<svg xmlns="http://www.w3.org/2000/svg" viewBox="0 0 100 100"><path fill="#303952" d="M 21 14 C 17.145666 14 14 17.145666 14 21 L 14 63 C 14 66.854334 17.145666 70 21 70 L 22 70 L 22 71 C 22 74.854334 25.145666 78 29 78 L 30 78 L 30 79 C 30 82.854334 33.145666 86 37 86 L 79 86 C 82.854334 86 86 82.854334 86 79 L 86 37 C 86 33.145666 82.854334 30 79 30 L 78 30 L 78 29 C 78 25.145666 74.854334 22 71 22 L 70 22 L 70 21 C 70 17.145666 66.854334 14 63 14 L 21 14 z M 21 16 L 63 16 C 65.773666 16 68 18.226334 68 21 L 68 63 C 68 65.773666 65.773666 68 63 68 L 21 68 C 18.226334 68 16 65.773666 16 63 L 16 21 C 16 18.226334 18.226334 16 21 16 z M 25.5 21 C 23.020742 21 21 23.020742 21 25.5 L 21 58.5 C 21 60.979258 23.020742 63 25.5 63 L 58.5 63 C 60.979258 63 63 60.979258 63 58.5 L 63 25.5 C 63 23.020742 60.979258 21 58.5 21 L 25.5 21 z M 25.5 22 L 58.5 22 C 60.438742 22 62 23.561258 62 25.5 L 62 48.890625 L 51.912109 34.216797 A 0.50005 0.50005 0 0 0 51.484375 34 A 0.50005 0.50005 0 0 0 51.085938 34.21875 L 39.484375 51.314453 L 31.900391 41.199219 A 0.50005 0.50005 0 0 0 31.513672 41 A 0.50005 0.50005 0 0 0 31.130859 41.164062 L 22 51.207031 L 22 25.5 C 22 23.561258 23.561258 22 25.5 22 z M 70 24 L 71 24 C 73.773666 24 76 26.226334 76 29 L 76 71 C 76 73.773666 73.773666 76 71 76 L 29 76 C 26.226334 76 24 73.773666 24 71 L 24 70 L 63 70 C 66.854334 70 70 66.854334 70 63 L 70 24 z M 34 25 C 30.692212 25 28 27.692214 28 31 C 28 34.307786 30.692212 37 34 37 C 37.307788 37 40 34.307786 40 31 C 40 27.692214 37.307788 25 34 25 z M 34 26 C 36.767348 26 39 28.232654 39 31 C 39 33.767346 36.767348 36 34 36 C 31.232652 36 29 33.767346 29 31 C 29 28.232654 31.232652 26 34 26 z M 78 32 L 79 32 C 81.773666 32 84 34.226334 84 37 L 84 79 C 84 81.773666 81.773666 84 79 84 L 37 84 C 34.226334 84 32 81.773666 32 79 L 32 78 L 71 78 C 74.854334 78 78 74.854334 78 71 L 78 32 z M 51.503906 35.386719 L 62 50.65625 L 62 58.5 C 62 60.438742 60.438742 62 58.5 62 L 33.443359 62 L 51.503906 35.386719 z M 31.462891 42.283203 L 38.892578 52.189453 L 32.234375 62 L 25.5 62 C 23.561258 62 22 60.438742 22 58.5 L 22 52.691406 L 31.462891 42.283203 z"></path></svg>
