<svg xmlns="http://www.w3.org/2000/svg" viewBox="0 0 64 64"><path fill="#303952" d="M 5 8 C 3.3 8 2 9.3887656 2 11.009766 L 2 52.957031 C 2 54.578031 3.3 55.966797 5 55.966797 L 59 55.966797 C 60.7 55.966797 62 54.578031 62 52.957031 L 62 11.009766 C 62 9.3887656 60.7 8 59 8 L 5 8 z M 5 9.96875 L 59 9.96875 C 59.6 9.96875 60 10.430766 60 11.009766 L 60 52.957031 C 60 53.536031 59.6 54 59 54 L 5 54 C 4.4 54 4 53.536031 4 52.957031 L 4 11.009766 C 4 10.430766 4.4 9.96875 5 9.96875 z M 7 12 C 6.4 12 6 12.447 6 13 L 6 15 C 6 15.552 6.4 16 7 16 C 7.6 16 8 15.553 8 15 L 8 13 C 8 12.447 7.6 12 7 12 z M 12 12 C 11.4 12 11 12.447 11 13 L 11 15 C 11 15.552 11.4 16 12 16 C 12.6 16 13 15.553 13 15 L 13 13 C 13 12.447 12.6 12 12 12 z M 17 12 C 16.4 12 16 12.447 16 13 L 16 15 C 16 15.552 16.4 16 17 16 C 17.6 16 18 15.553 18 15 L 18 13 C 18 12.447 17.6 12 17 12 z M 22 12 C 21.4 12 21 12.447 21 13 L 21 15 C 21 15.552 21.4 16 22 16 C 22.6 16 23 15.553 23 15 L 23 13 C 23 12.447 22.6 12 22 12 z M 27 12 C 26.4 12 26 12.447 26 13 L 26 15 C 26 15.552 26.4 16 27 16 C 27.6 16 28 15.553 28 15 L 28 13 C 28 12.447 27.6 12 27 12 z M 32 12 C 31.4 12 31 12.447 31 13 L 31 15 C 31 15.552 31.4 16 32 16 C 32.6 16 33 15.553 33 15 L 33 13 C 33 12.447 32.6 12 32 12 z M 37 12 C 36.4 12 36 12.447 36 13 L 36 15 C 36 15.552 36.4 16 37 16 C 37.6 16 38 15.553 38 15 L 38 13 C 38 12.447 37.6 12 37 12 z M 42 12 C 41.4 12 41 12.447 41 13 L 41 15 C 41 15.552 41.4 16 42 16 C 42.6 16 43 15.553 43 15 L 43 13 C 43 12.447 42.6 12 42 12 z M 47 12 C 46.4 12 46 12.447 46 13 L 46 15 C 46 15.552 46.4 16 47 16 C 47.6 16 48 15.553 48 15 L 48 13 C 48 12.447 47.6 12 47 12 z M 52 12 C 51.4 12 51 12.447 51 13 L 51 15 C 51 15.552 51.4 16 52 16 C 52.6 16 53 15.553 53 15 L 53 13 C 53 12.447 52.6 12 52 12 z M 57 12 C 56.4 12 56 12.447 56 13 L 56 15 C 56 15.553 56.4 16 57 16 C 57.6 16 58 15.553 58 15 L 58 13 C 58 12.447 57.6 12 57 12 z M 7 18 C 6.4 18 6 18.4 6 19 C 6 19.6 6.4 20 7 20 L 14 20 L 14 44 L 7 44 C 6.4 44 6 44.4 6 45 C 6 45.6 6.4 46 7 46 L 57 46 C 57.6 46 58 45.6 58 45 C 58 44.4 57.6 44 57 44 L 50 44 L 50 20 L 57 20 C 57.6 20 58 19.6 58 19 C 58 18.4 57.6 18 57 18 L 7 18 z M 16 20 L 48 20 L 48 44 L 16 44 L 16 20 z M 26.941406 22 A 1.0001 1.0001 0 0 0 26 23 L 26 41 A 1.0001 1.0001 0 0 0 27.513672 41.857422 L 42.513672 32.857422 A 1.0001 1.0001 0 0 0 42.513672 31.142578 L 27.513672 22.142578 A 1.0001 1.0001 0 0 0 27.041016 22 A 1.0001 1.0001 0 0 0 26.941406 22 z M 28 24.765625 L 40.056641 32 L 28 39.234375 L 28 24.765625 z M 7 48 C 6.4 48 6 48.447 6 49 L 6 51 C 6 51.553 6.4 52 7 52 C 7.6 52 8 51.553 8 51 L 8 49 C 8 48.447 7.6 48 7 48 z M 12 48 C 11.4 48 11 48.447 11 49 L 11 51 C 11 51.553 11.4 52 12 52 C 12.6 52 13 51.553 13 51 L 13 49 C 13 48.447 12.6 48 12 48 z M 17 48 C 16.4 48 16 48.447 16 49 L 16 51 C 16 51.553 16.4 52 17 52 C 17.6 52 18 51.553 18 51 L 18 49 C 18 48.447 17.6 48 17 48 z M 22 48 C 21.4 48 21 48.447 21 49 L 21 51 C 21 51.553 21.4 52 22 52 C 22.6 52 23 51.553 23 51 L 23 49 C 23 48.447 22.6 48 22 48 z M 27 48 C 26.4 48 26 48.447 26 49 L 26 51 C 26 51.553 26.4 52 27 52 C 27.6 52 28 51.553 28 51 L 28 49 C 28 48.447 27.6 48 27 48 z M 32 48 C 31.4 48 31 48.447 31 49 L 31 51 C 31 51.553 31.4 52 32 52 C 32.6 52 33 51.553 33 51 L 33 49 C 33 48.447 32.6 48 32 48 z M 37 48 C 36.4 48 36 48.447 36 49 L 36 51 C 36 51.553 36.4 52 37 52 C 37.6 52 38 51.553 38 51 L 38 49 C 38 48.447 37.6 48 37 48 z M 42 48 C 41.4 48 41 48.447 41 49 L 41 51 C 41 51.553 41.4 52 42 52 C 42.6 52 43 51.553 43 51 L 43 49 C 43 48.447 42.6 48 42 48 z M 47 48 C 46.4 48 46 48.447 46 49 L 46 51 C 46 51.553 46.4 52 47 52 C 47.6 52 48 51.553 48 51 L 48 49 C 48 48.447 47.6 48 47 48 z M 52 48 C 51.4 48 51 48.447 51 49 L 51 51 C 51 51.553 51.4 52 52 52 C 52.6 52 53 51.553 53 51 L 53 49 C 53 48.447 52.6 48 52 48 z M 57 48 C 56.4 48 56 48.447 56 49 L 56 51 C 56 51.553 56.4 52 57 52 C 57.6 52 58 51.553 58 51 L 58 49 C 58 48.447 57.6 48 57 48 z"></path></svg>
